# This file uses centimeters as units for non-parametric coordinates.

mtllib GD_Obelish_Basic_01_OBJ.mtl
g default
v -0.000503 100.000000 0.000504
v 0.000497 100.000000 0.000497
v 0.000500 100.000000 -0.000515
v -0.000510 100.000000 -0.000525
v -9.902647 89.494896 10.107257
v -10.107257 89.494896 9.902647
v -9.735281 90.356110 9.530671
v -9.530671 90.356110 9.735281
v -10.107257 89.494896 -9.902647
v -9.902647 89.494896 -10.107257
v -9.530670 90.356110 -9.735281
v -9.735280 90.356110 -9.530671
v 10.107257 89.494896 9.902647
v 9.902647 89.494896 10.107257
v 9.530671 90.356110 9.735280
v 9.735281 90.356110 9.530670
v 9.902647 89.494896 -10.107257
v 10.107257 89.494896 -9.902647
v 9.735280 90.356110 -9.530671
v 9.530670 90.356110 -9.735281
v 12.295390 0.000000 12.500000
v 12.500000 0.000000 12.295390
v -12.500000 0.000000 12.295390
v -12.295390 0.000000 12.500000
v 12.500000 0.000000 -12.295390
v 12.295390 0.000000 -12.500000
v -12.295390 0.000000 -12.500000
v -12.500000 0.000000 -12.295390
v 6.372049 93.493896 6.576644
v 6.576659 93.493896 6.372035
v -6.576661 93.493896 6.372052
v -6.372051 93.493896 6.576662
v 6.576643 93.493904 -6.372047
v 6.372033 93.493904 -6.576657
v -6.372029 93.493912 -6.576654
v -6.576640 93.493912 -6.372044
v -0.232193 99.886688 -0.423522
v -0.431090 99.878822 -0.226478
v -0.157272 100.000000 -0.157269
v -0.157275 99.999992 0.157276
v -0.423527 99.886681 0.232194
v -0.232194 99.886681 0.423526
v 0.157271 99.999992 0.157275
v 0.232191 99.886681 0.423527
v 0.423524 99.886681 0.232194
v 0.157271 100.000000 -0.157270
v 0.423522 99.886681 -0.232191
v 0.232190 99.886688 -0.423523
vt 0.022471 0.709323
vt 0.794412 0.712227
vt 0.796030 0.712227
vt 0.022471 0.004243
vt 0.022471 0.716108
vt 0.796030 0.004596
vt 0.049444 0.754695
vt 0.794412 0.004596
vt 0.794412 0.719037
vt 0.532668 0.709324
vt 0.532668 0.004243
vt 0.792795 0.728671
vt 0.277374 0.712228
vt 0.194426 0.709323
vt 0.194426 0.004243
vt 0.275756 0.712228
vt 0.275756 0.004596
vt 0.196701 0.725640
vt 0.277374 0.004596
vt 0.167452 0.754695
vt 0.820543 0.758145
vt 0.530380 0.725852
vt 0.822465 0.758145
vt 0.559633 0.754912
vt 0.277374 0.719038
vt 0.110598 0.813892
vt 0.106298 0.813892
vt 0.968608 0.712227
vt 0.106992 0.814927
vt 0.109904 0.814955
vt 0.704624 0.709324
vt 0.272214 0.728671
vt 0.303806 0.758147
vt 0.704624 0.004243
vt 0.704624 0.716109
vt 0.301884 0.758147
vt 0.677659 0.754911
vt 0.451569 0.712228
vt 0.620796 0.814117
vt 0.449951 0.712228
vt 0.970226 0.712227
vt 0.616495 0.814117
vt 0.617189 0.815167
vt 0.620102 0.815167
vt 0.449951 0.004596
vt 0.451569 0.004596
vt 0.451569 0.719038
vt 0.453190 0.728671
vt 0.425441 0.758147
vt 0.423519 0.758147
vt 0.361481 0.818198
vt 0.359684 0.818198
vt 0.367641 0.818198
vt 0.365844 0.818198
vt 0.362185 0.819262
vt 0.365140 0.819262
vt 0.970226 0.004596
vt 0.968608 0.004596
vt 0.968608 0.719037
vt 0.973765 0.728671
vt 0.942173 0.758145
vt 0.944095 0.758145
vt 0.878341 0.818195
vt 0.880138 0.818195
vt 0.884447 0.818120
vt 0.886298 0.818195
vt 0.883796 0.819259
vt 0.880842 0.819259
vt 0.109849 0.817880
vt 0.106937 0.817826
vt 0.396200 0.994022
vt 0.397798 0.995621
vt 0.589914 0.995621
vt 0.591512 0.994022
vt 0.591512 0.801907
vt 0.589914 0.800308
vt 0.397798 0.800308
vt 0.396200 0.801907
vt 0.970226 0.719037
vt 0.532668 0.716109
vt 0.455111 0.728671
vt 0.706912 0.725852
vt 0.449951 0.719038
vt 0.274135 0.728671
vt 0.275756 0.719038
vt 0.194426 0.716108
vt 0.790873 0.728671
vt 0.020196 0.725640
vt 0.796030 0.719037
vt 0.971843 0.728671
vn 0.000000 1.000000 0.000227
vn 0.000000 1.000000 0.000227
vn 0.000000 1.000000 0.000227
vn 0.000000 1.000000 0.000227
vn 0.000000 -1.000000 0.000000
vn 0.000000 -1.000000 0.000000
vn 0.000000 -1.000000 0.000000
vn 0.000000 -1.000000 0.000000
vn 0.000000 -1.000000 0.000000
vn 0.000000 -1.000000 0.000000
vn 0.000000 -1.000000 0.000000
vn 0.000000 -1.000000 0.000000
vn -0.706447 0.043232 0.706445
vn -0.706447 0.043232 0.706445
vn -0.706603 0.037784 0.706601
vn -0.706603 0.037784 0.706601
vn -0.012384 0.619192 0.785142
vn -0.785144 0.619190 0.012384
vn -0.013755 0.711738 0.702311
vn -0.702306 0.711742 0.013759
vn -0.706447 0.043232 -0.706445
vn -0.706447 0.043232 -0.706445
vn -0.706603 0.037784 -0.706601
vn -0.706603 0.037784 -0.706601
vn -0.785144 0.619190 -0.012384
vn -0.012384 0.619189 -0.785144
vn -0.702305 0.711744 -0.013757
vn -0.014053 0.711881 -0.702160
vn 0.706447 0.043232 0.706445
vn 0.706447 0.043232 0.706445
vn 0.706603 0.037784 0.706601
vn 0.706603 0.037784 0.706601
vn 0.785144 0.619190 0.012384
vn 0.012385 0.619192 0.785142
vn 0.702311 0.711737 0.013756
vn 0.013756 0.711738 0.702311
vn 0.706447 0.043232 -0.706445
vn 0.706447 0.043232 -0.706445
vn 0.706603 0.037784 -0.706601
vn 0.706603 0.037784 -0.706601
vn 0.012384 0.619189 -0.785144
vn 0.785143 0.619190 -0.012384
vn 0.013756 0.711737 -0.702312
vn 0.702311 0.711737 -0.013756
vn 0.712715 0.701289 0.015182
vn 0.015183 0.701288 0.712716
vn -0.015182 0.701289 0.712716
vn -0.712620 0.701382 0.015353
vn 0.015183 0.701290 -0.712715
vn 0.712715 0.701289 -0.015183
vn -0.712712 0.701293 -0.015196
vn -0.015491 0.701446 -0.712554
vn -0.160811 0.974105 -0.158932
vn 0.156689 0.975139 -0.156690
vn -0.160093 0.974958 0.154357
vn 0.156689 0.975140 0.156685
vn -0.999572 0.029257 -0.000000
vn -0.999572 0.029257 -0.000000
vn 0.000000 0.029257 0.999572
vn 0.000000 0.029257 0.999572
vn 0.999572 0.029257 -0.000000
vn 0.999572 0.029257 -0.000000
vn 0.000000 0.029257 -0.999572
vn 0.000000 0.029257 -0.999572
vn 0.000000 0.026727 0.999643
vn 0.000000 0.026727 0.999643
vn 0.000000 0.026727 -0.999643
vn 0.000000 0.026727 -0.999643
vn 0.999643 0.026727 0.000000
vn 0.999643 0.026727 0.000000
vn -0.999643 0.026727 0.000000
vn -0.999643 0.026727 0.000000
s off
g Obelisk_Basic
usemtl initialShadingGroup
f 1//1 2//2 3//3 4//4
f 28/71/5 27/72/6 26/73/7 25/74/8 22/75/9 21/76/10 24/77/11 23/78/12
s 1
f 5/2/13 6/3/14 23/6/15 24/8/16
f 6/3/14 5/2/13 8/9/17 7/89/18
f 7/12/18 8/87/17 32/21/19 31/23/20
f 9/28/21 10/41/22 27/57/23 28/58/24
f 10/41/22 9/28/21 12/59/25 11/79/26
f 11/60/26 12/90/25 36/61/27 35/62/28
f 13/13/29 14/16/30 21/17/31 22/19/32
f 14/16/30 13/13/29 16/25/33 15/85/34
f 15/32/34 16/84/33 30/33/35 29/36/36
f 17/38/37 18/40/38 25/45/39 26/46/40
f 18/40/38 17/38/37 20/47/41 19/83/42
f 19/48/42 20/81/41 34/49/43 33/50/44
f 29/36/36 30/33/35 45/51/45 44/52/46
f 31/23/20 32/21/19 42/63/47 41/64/48
f 33/50/44 34/49/43 48/53/49 47/54/50
f 35/62/28 36/61/27 38/65/51 37/66/52
f 37/42/52 39/43/53 46/44/54 48/39/49
f 39/67/53 38/65/51 41/64/48 40/68/55
f 40/29/55 42/27/47 44/26/46 43/30/56
f 43/55/56 45/51/45 47/54/50 46/56/54
f 6/3/57 7/89/18 12/59/25 9/28/58
f 8/5/17 5/1/59 14/14/60 15/86/34
f 16/25/33 13/13/61 18/40/62 19/83/42
f 10/10/63 11/80/26 20/35/41 17/31/64
f 5/1/59 24/4/65 21/15/66 14/14/60
f 10/10/63 17/31/64 26/34/67 27/11/68
f 13/13/61 22/19/69 25/45/70 18/40/62
f 9/28/58 28/58/71 23/6/72 6/3/57
f 8/88/17 15/18/34 29/20/36 32/7/19
f 16/84/33 19/48/42 33/50/44 30/33/35
f 20/82/41 11/22/26 35/24/28 34/37/43
f 12/90/25 7/12/18 31/23/20 36/61/27
f 36/61/27 31/23/20 41/64/48 38/65/51
f 32/7/19 29/20/36 44/26/46 42/27/47
f 30/33/35 33/50/44 47/54/50 45/51/45
f 34/37/43 35/24/28 37/42/52 48/39/49
f 40/29/55 43/30/56 46/69/54 39/70/53
f 37/66/52 38/65/51 39/67/53
f 40/68/55 41/64/48 42/63/47
f 43/55/56 44/52/46 45/51/45
f 46/56/54 47/54/50 48/53/49
